<svg xmlns="http://www.w3.org/2000/svg" viewBox="0 0 64 64">
  <defs>
    <linearGradient id="g" x1="0" y1="0" x2="1" y2="1">
      <stop offset="0" stop-color="#7c5cff"/>
      <stop offset="1" stop-color="#2de2e6"/>
    </linearGradient>
  </defs>
  <rect x="10" y="10" width="44" height="44" rx="12" fill="url(#g)"/>
  <path d="M22 22h20a4 4 0 0 1 4 4v18a4 4 0 0 1-4 4H26a4 4 0 0 1-4-4V22z" fill="rgba(0,0,0,0.18)"/>
  <path d="M22 22h18a4 4 0 0 1 4 4v18a4 4 0 0 1-4 4H24a2 2 0 0 1-2-2V22z" fill="rgba(255,255,255,0.82)"/>
  <path d="M40 24v22" stroke="rgba(0,0,0,0.14)" stroke-width="2"/>
</svg>

